<?xml version="1.0" encoding="UTF-8"?>
<svg id="Layer_2" xmlns="http://www.w3.org/2000/svg" viewBox="0 0 267.13 267.13">
  <g id="Layer_1-2" data-name="Layer_1">
    <path d="M.52,151.01c3.03-3.29,7.31-4.17,11.21-5.79.32-.13.66-.2,1-.3,6.96-2.14,6.92-2.14,6.98-9.6.03-4.2-.33-8.32-1.82-12.27-1.38-3.65-3.62-6.47-7.53-7.72-1.65-.53-3.25-1.28-4.51-2.52-2.21-2.17-1.63-4.87,1.3-5.86,2.71-.91,5.47-1.67,8.2-2.53.96-.3,1.94-.61.79-1.9-4.6-5.15-6.24-11.51-7.21-18.1-1.08-7.37-1.09-14.72,1.75-21.77,2.79-6.94,7.62-11.43,15.3-12.48,15.71-2.15,31.4-4.38,47.11-6.58,18.19-2.54,36.38-5.07,54.57-7.6,13.99-1.95,27.97-3.9,41.96-5.86,1.15-.16,2.23.09,3.32.42,28.89,8.71,57.78,17.41,86.67,26.1,1.62.49,3.21.99,3.46,3.02.26,2.06-1.03,3.21-2.55,4.17-.8.51-1.64,1.04-2.54,1.3-4.86,1.4-7.4,4.93-8.77,9.49-1.57,5.24-1.43,10.62-1.04,16,.12,1.67.91,2.57,2.59,3.08,3.48,1.05,6.91,2.29,10.32,3.57,1.45.54,2.84,1.3,4.17,2.11.93.58,2.04,1.3,1.82,2.61-.22,1.33-1.47,1.55-2.57,1.83-3.03.75-6.05,1.51-9.09,2.24-1.38.33-1.69.91-.81,2.15,3.75,5.26,4.63,11.34,4.74,17.55.09,4.86-.53,9.7-1.74,14.42-1.51,5.9-4.04,11.25-9.4,15.3,1.73.56,3.04.94,4.32,1.42,2.84,1.06,3.4,3.5,1.32,5.7-.91.96-1.99,1.76-3.24,2.12-7.37,2.12-9.47,7.9-10.48,14.62-.57,3.83-.28,7.59-.01,11.4.11,1.58.7,2.31,2.16,2.73,3.66,1.07,7.32,2.16,10.82,3.72,1.26.56,2.53,1.16,3.71,1.87,1.09.65,2.48,1.31,2.19,2.89-.27,1.44-1.69,1.56-2.86,1.85-6.15,1.51-12.29,3.02-18.44,4.51-40.61,9.84-81.22,19.65-121.82,29.53-2.54.62-4.83.56-7.33-.26-31.07-10.16-62.17-20.24-93.26-30.35-5.83-1.9-9.13-6.35-11.5-11.67-1.75-3.91-2.4-8.13-3.26-12.28v-13.54c1.11-5.38,2.71-10.54,6.84-14.64-2.41-1.2-4.95-1.01-6.84-2.55v-1.56ZM121.09,96.76c.12-3.97.12-3.98-3.65-5.21-14.67-4.79-29.34-9.56-44.02-14.34-15-4.89-30-9.8-45.01-14.65-4.81-1.55-7.85,0-9.64,4.71-.46,1.22-.73,2.47-.97,3.76-.87,4.68-.5,9.35.18,13.98,1.07,7.36,4.11,13.09,12.47,14.06.51.06,1,.27,1.5.41,28.54,8.01,57.09,16.01,85.63,24.03,1.49.42,2.61.8,2.66-1.55.19-8.4.56-16.81.86-25.21ZM250.34,126.9c.09-3.06-.22-6.07-1.19-8.98-1.8-5.41-5.03-7.06-10.46-5.28-29.84,9.72-59.67,19.5-89.53,29.17-2.16.7-2.81,1.79-2.7,3.94.39,7.96.68,15.94.95,23.91.15,4.48.11,4.51,4.47,3.29,29.05-8.13,58.07-16.38,87.18-24.3,5.55-1.51,8.35-4.84,9.79-9.92,1.09-3.86,1.45-7.83,1.49-11.83ZM112.3,200.31c.21,0,.41,0,.62,0,0-1.56-.12-3.14.03-4.68.22-2.16-.54-3.29-2.72-3.94-5.65-1.68-11.23-3.6-16.83-5.43-24.4-7.95-48.8-15.91-73.21-23.85-1.22-.4-2.4-.84-3.79-.58-4.02.74-5.49,3.74-6.28,7.13-1.24,5.3-.95,10.69-.24,16.03,1.02,7.73,4.83,12.19,12.96,14.33,28.75,7.56,57.31,15.87,85.94,23.9,3.1.87,3.49.61,3.51-2.62.03-6.76,0-13.52,0-20.28ZM126.11,116.25c0,2.22.11,3.71-.03,5.17-.2,2.11.4,2.77,2.61,2.22,37.25-9.33,74.51-18.61,111.79-27.85,1.76-.44,2.39-1.03,2.15-2.96-.84-6.93-.93-13.84,1.31-20.59,1.15-3.47,1.14-3.49-2.44-2.75-37.18,7.64-74.36,15.31-111.55,22.88-2.53.52-3.22,1.84-3.22,4.09,0,6.85-.17,13.7-.62,19.79ZM141.47,165.23c-.35-4.95-.61-11.88-.51-18.82.04-2.54-.98-3.61-3.5-4.12-30.4-6.17-60.78-12.44-91.17-18.68-7.21-1.48-14.43-2.98-21.64-4.45-.81-.16-2.32-.81-1.61,1.06,2.66,7,3.05,14.22,2.04,21.51-.42,3,.78,3.76,3.38,4.4,35.43,8.72,70.84,17.55,106.24,26.36,6.86,1.71,6.86,1.73,6.76-7.27ZM117.95,220.52c-.16,3.65-.15,3.67,2.61,2.98,37.16-9.25,74.32-18.52,111.49-27.72,2.12-.52,2.69-1.31,2.47-3.56-.72-7.18-.89-14.37,1.74-21.31.21-.55.8-1.15.43-1.69-.49-.7-1.26-.19-1.91-.06-16.89,3.45-33.77,6.91-50.66,10.37-7.13,1.46-14.26,2.88-21.38,4.41-7.09,1.53-13.66,4.67-21.32,4.66-6.62,0-13.24,2.43-19.86,3.78-1.48.3-2.73.56-2.77,2.66-.18,8.49-.54,16.97-.84,25.46Z"/>
  </g>
</svg>