<?xml version="1.0" encoding="UTF-8"?>
<svg id="Layer_2" xmlns="http://www.w3.org/2000/svg" viewBox="0 0 410.4 409.96">
  <g id="Layer_1-2" data-name="Layer_1">
    <g>
      <path d="M410.4,99.01v212.39c-1.36,5.82-2.18,11.74-3.71,17.53-12.11,45.78-56.33,80.66-103.71,80.88-64.66.29-129.31.08-193.97.06-10.87,0-21.39-2.16-31.68-5.54C31.97,389.43.77,345.87,1.17,297.39c.5-61.46.12-122.93.13-184.39,0-5.32,0-10.62.83-15.92C8.2,58,28.86,29.48,64.04,11.47c11.25-5.76,23.41-8.57,35.76-10.67,70.8,0,141.59,0,212.39,0,1.95.41,3.89.86,5.84,1.22,36.45,6.63,63.17,26.58,80.64,59.07,6.37,11.85,9.55,24.74,11.72,37.92ZM386.13,198.62c-.55-26.54,1.32-59.69-.73-92.77-2.02-32.55-18.64-56.12-47.18-71.41-13.22-7.08-27.64-9.31-42.43-9.33-52.02-.07-104.04-.07-156.05,0-11.03.01-22.07-.39-33.1.52-32.36,2.67-55.89,18.68-71.23,46.99-7.21,13.3-9.49,27.85-9.5,42.79-.06,52.02-.06,104.04,0,156.05.01,11.03-.39,22.07.52,33.1,2.67,32.36,18.69,55.88,46.99,71.23,13.18,7.14,27.59,9.49,42.39,9.51,56.01.08,112.02.04,168.03.02,7.18,0,14.34.06,21.53-.54,32.51-2.74,56.11-18.83,71.4-47.37,6.95-12.97,9.26-27.12,9.33-41.63.14-30.2.04-60.4.04-97.17Z"/>
      <path d="M93.91,205.2c0-62.04,50.12-112.12,112.18-112.09,62.01.03,112.04,50.2,111.99,112.28-.06,61.98-50.27,111.97-112.38,111.89-61.79-.09-111.79-50.21-111.79-112.08ZM201.48,292.15c46.55,3.17,90.87-33.83,91.78-85.8.79-45.22-34.84-87.5-86.31-88.39-45.39-.79-87.25,35.19-88.19,86.1-.86,46.66,36.36,86.35,82.72,88.09Z"/>
      <path d="M287.14,86.33c.11-18.22,15.39-33.27,33.54-33.05,18.24.23,33.23,15.33,33.25,33.5.02,18.54-15.27,33.45-34.11,33.28-18.31-.17-32.79-15.12-32.68-33.73ZM328.73,86.61c-.08-4.71-3.68-8.19-8.44-8.14-4.7.05-8.29,3.75-8.19,8.43.1,4.67,3.84,8.29,8.5,8.21,4.68-.08,8.21-3.76,8.13-8.5Z"/>
    </g>
  </g>
</svg>