<?xml version="1.0" encoding="UTF-8"?>
<svg id="Layer_2" xmlns="http://www.w3.org/2000/svg" viewBox="0 0 42.36 42.28">
  <g id="Layer_1-2" data-name="Layer_1">
    <path d="M42.36,8.74c-.8,1.59-2.05,2.82-3.33,3.99-.68.62-.92,1.26-.95,2.16-.2,4.68-1.46,9.05-3.97,13.03-2.29,3.62-5.42,6.31-9.25,8.19-2.14,1.05-4.37,1.87-6.72,2.27-2.8.48-5.63.49-8.45.05-2.94-.45-5.7-1.37-8.2-3.01-.28-.18-.54-.37-.81-.57-.46-.33-.6-.65-.46-1.03.15-.41.45-.58,1.04-.51,1.27.16,2.55.19,3.82.07,2.12-.2,4.12-.76,5.88-2.01.08-.05.15-.12.22-.17-.04-.16-.18-.13-.27-.16-2.95-.88-4.93-2.76-5.92-5.68-.26-.76-.12-1.07.65-1.37-.6-.48-1.17-.97-1.65-1.55-1.45-1.76-2.02-3.8-2-6.04,0-.7.64-1.03,1.25-.69.16.09.32.19.51.26-.53-.86-.99-1.74-1.32-2.68-.9-2.57-.59-5.02.75-7.36.31-.54.92-.55,1.38-.04,1.04,1.15,2.17,2.22,3.38,3.2,2.24,1.83,4.67,3.32,7.42,4.26,1.41.48,2.86.76,4.35.85.29.02.4-.01.36-.37-.59-5.93,4.49-10.81,10.31-9.89,1.68.27,3.17.96,4.44,2.1.23.2.44.26.74.24,1.51-.14,2.88-.64,4.13-1.49.08-.05.16-.11.24-.15.62-.33,1.23.04,1.21.74-.04,1.04-.6,1.86-1.18,2.66-.11.15-.27.26-.34.49.48-.12.91-.26,1.31-.51.67-.41,1.01-.33,1.42.33v.41ZM38.48,7.23c-1.08.35-2.17.59-3.3.63-.48.02-.84-.12-1.18-.45-1.55-1.46-3.39-2.12-5.52-1.99-4,.24-7.18,3.92-6.84,7.91.04.44.1.87.18,1.3.12.67-.18,1.09-.81,1.11-1.99.09-3.94-.18-5.84-.79-3.39-1.09-6.32-2.95-8.99-5.27-.71-.62-1.39-1.28-2.11-2-.13.44-.27.81-.36,1.19-.49,2.14.03,4.08,1.18,5.88.46.72,1,1.38,1.62,1.96.27.26.41.56.29.92-.13.39-.44.53-.83.55-.27.01-.55.01-.82-.02-.49-.06-.95-.23-1.44-.38,0,.1,0,.15,0,.2.25,1.58.9,2.96,2.08,4.06.96.9,2.08,1.51,3.35,1.86.39.11.67.33.68.77.01.43-.22.68-.62.82-.27.1-.55.17-.83.23-.47.1-.95.05-1.46.09.05.11.08.18.12.25,1.25,2.28,3.22,3.45,5.77,3.7.42.04.8.09.98.54.18.45-.08.75-.36,1.05-1.64,1.73-3.69,2.73-5.98,3.27-1.05.25-2.12.38-3.21.46.4.22.8.42,1.21.57,4.06,1.54,8.24,1.79,12.48,1.12,2.28-.36,4.44-1.2,6.51-2.23,4.44-2.23,7.76-5.56,9.84-10.08,1.58-3.44,2.33-7.07,2.25-10.87,0-.44.12-.79.45-1.09.66-.62,1.3-1.26,1.95-1.9.08-.08.21-.14.19-.31-.12.02-.25.03-.37.05-.54.09-1.08.2-1.63.23-.38.02-.68-.11-.83-.47-.16-.38-.05-.7.26-.96.16-.13.32-.26.47-.4.53-.46,1.05-.93,1.47-1.51Z"/>
  </g>
</svg>