<?xml version="1.0" encoding="UTF-8"?>
<svg id="Layer_2" xmlns="http://www.w3.org/2000/svg" viewBox="0 0 1177.95 1178.02">
  <g id="Layer_1-2" data-name="Layer_1">
    <g>
      <path d="M0,589.41C-.34,263.86,261.25-1.68,592.86,0c324.68,1.65,588.16,266.02,585.07,595.65-2.99,318.93-262.48,580.26-584.57,582.35C264.62,1180.14-.52,915.34,0,589.41ZM738.94,990.56c-3.3-2.04-5.41-1.32-7.48-.81-11.34,2.78-22.49,6.21-33.36,10.47-52.82,20.71-91.91,57.32-121.39,105.01-5.17,8.37-9.71,17.09-14.05,25.92-2.69,5.47-6.69,9.23-13.15,9.12-13.55-.24-26.79-2.94-40.05-5.37-3.88-.71-5.2-3.43-4.03-7.12,1.26-3.96,2.57-7.94,4.19-11.76,8.66-20.33,20.21-39.04,32.53-57.28,33.44-49.51,78.11-85.08,133.57-107.18,45.93-18.3,93.57-25.29,142.91-23,43.65,2.03,85.36,11.7,125.41,28.87,9.51,4.07,18.6,9.03,26.99,15.13,5.53,4.02,5.86,7.19,1.47,12.47-1.49,1.79-3.17,3.42-4.81,5.08-19.88,20.12-42.47,36.89-65.48,53.18-6.27,4.44-11.72,4.61-18.48,1.23-19.28-9.66-39.26-17.5-60.78-20.71-5.55-.83-6.99.15-7.63,5.57-.66,5.62-1.34,11.25-1.96,16.87-1.43,12.91-2.79,25.83-4.27,38.73-.91,7.93-3.82,14.52-12.22,17.2-.88.28-2,.61-1.18,2.81,7.8-3.2,15.67-6.17,23.34-9.6,59.85-26.77,112.33-64.39,159.46-109.59,37.01-35.5,68.21-75.66,93.53-120.35,27.4-48.36,46.81-99.77,58.99-153.92,10.68-47.52,15.3-95.6,13.32-144.34-.94-23.18-2.99-46.22-6.76-69.06-10.78-65.41-32.36-127.06-65.22-184.71-35.68-62.6-81.96-116.06-138.58-160.54-45.28-35.57-95.02-63.32-148.79-83.86-55.72-21.28-113.46-33.15-173-35.65-50.18-2.11-99.84,2.38-148.83,13.81-60.6,14.14-117.27,37.7-169.92,70.8-46.3,29.11-87.31,64.48-123.15,105.8-33.26,38.36-61.16,80.3-83,126.14-28.89,60.62-46.36,124.39-51.95,191.37-3.58,42.85-2.65,85.57,3.63,128.09,12.23,82.89,41.49,159.31,88.16,228.96,34.73,51.83,77.27,96.25,126.86,134.08,46.9,35.78,98.02,63.65,153.85,82.71,49.16,16.79,99.75,26.23,151.66,28.96,44.47,2.34,88.58.8,132.12-9.35,2.99-.7,6.16-.96,8.57-2.4-2.63-2.92-5.05-5.64-7.5-8.32-12.03-13.15-24.03-26.33-36.14-39.41-3.88-4.19-5.62-4.21-9.59-.49-8.05,7.52-15.43,15.66-22.21,24.35-2.94,3.76-2.84,7.27.59,10.67,3.91,3.87,7.79,7.77,11.65,11.68,1.6,1.62,3.91,3.02,2.84,5.83-.94,2.45-3.35,2.37-5.47,2.74-20.01,3.54-40.12,3.1-60.28,1.88-8.86-.53-10.5-2.95-6.55-10.86,7.09-14.18,15.11-27.8,24.29-40.75,32.67-46.03,75.8-77.61,129.86-94.11,5.49-1.67,11.03-3.15,17.49-4.99ZM773.15,1112.39c-7.71-1.67-8.06-6.34-8.21-11.46-.66-22.48,1.24-44.9,1.27-67.36,0-6.47-1.64-8.24-7.61-7.27-19.42,3.17-38.59,7.33-56.35,16.29-6.88,3.47-7.39,5.09-3.11,11.43,8,11.86,16.4,23.46,24.17,35.47,6.56,10.14,15.13,19.03,19.34,30.66.57,1.56,1.82,1.21,2.93.87,8.68-2.69,17.34-5.42,27.56-8.62Z"/>
      <path d="M796.55,343.77c3.13,1.54,6.22,1.11,9.27.38,8.75-2.1,17.48-4.28,25.81-7.79,2.28-.96,4.78-2.35,6.77.36,1.83,2.48-.2,4.37-1.43,6.27-4.01,6.17-9.83,10.33-15.94,14.16-5.08,3.19-10.17,6.36-15.22,9.59-.79.5-1.94,1.07-1.47,2.28.46,1.17,1.69.91,2.63.75,3.28-.56,6.56-1.15,9.82-1.84,3.76-.8,7.54-1.45,11.4-1.08,2.59.25,5.14.86,5.9,3.74.84,3.19-1.76,4.24-3.92,5.54-9.57,5.74-19.34,11.19-28.61,17.38-27.71,18.5-40.44,45.07-41.14,77.94-.49,22.86,1.82,45.58,3.43,68.33.55,7.79-.28,15.29-1.94,22.78-1.34,6.02-3,11.96-4.39,17.96-.72,3.08-2.17,5.54-4.87,7.24-3.88,2.44-4.68,5.87-2.97,9.95,1.87,4.45,4,8.8,5.75,13.3,3.53,9.02,6.16,18.34,7.87,27.86,4.08,22.66,15.2,41.72,29.6,59.23,14.78,17.97,31.41,34.59,40.74,56.53,5.02,11.8,10.62,23.36,15.76,35.11,3.08,7.03,7.16,11.62,15.87,10.65,5.73-.64,10.08,2.68,13.03,7.71,3.76,6.4,4.85,6.77,11.59,4.46,8.87-3.04,17.84.35,25.85,9.69,7.16,8.35,11.35,18.08,12.66,28.89.95,7.84,4.22,13.38,11.79,16.39,3.85,1.53,7.2,4.16,10.26,7.03,3.46,3.24,5.54,7.02,5.09,11.94-.5,5.51,1.73,10.45,3.34,15.51,2.88,9.04.33,13.88-8.89,16.5-4.64,1.32-9.37,2.36-14.08,3.41-3.81.85-6.82,2.69-8.45,6.33-1.85,4.13-5.18,4.77-9.14,4.1-4.15-.7-6.71-3.13-6.94-7.32-.32-5.98-2.47-11.72-1.84-17.84.32-3.09-2.34-4.52-4.74-5.84-8.55-4.7-17.79-7.52-27.17-9.91-43.81-11.15-88.25-17.27-133.53-16.17-54.2,1.31-107.19,9.04-157.38,30.87-11.32,4.92-22.31,10.5-33.03,16.6-7.58,4.31-10.86,3.12-13.91-5.16-1.18-3.21-2.11-6.55-4.63-9.45-1.53,2.63.1,6.79-3.69,7.24-3.62.43-4.73-3.25-6.38-5.58-12.15-17.12-24.18-34.33-36.27-51.49-5.31-7.53-2.26-15.68,6.71-17.87,3.1-.76,4.63,1.25,5.99,3.41,9.71,15.52,20.3,30.56,26.94,47.81.35.91.67,1.85,1.72,2.21,1.47-1.2.74-2.54.43-3.73-2.74-10.65-5.35-21.33-8.38-31.9-2.26-7.88-1.44-15.03,2.99-21.97,5.44-8.53,5-10.31-2.49-17.44-9.55-9.08-14.53-20.31-14.4-33.46.23-23.38-2.08-46.55-4.74-69.73-1.2-10.49,1.24-20.91,2.84-31.26,3.46-22.43,5.09-44.94,5.24-67.65.15-21.8,2.16-43.56,3.9-65.31.2-2.49.37-4.98.43-7.48.13-5.66-2.5-9.61-7.8-11.55-10.23-3.75-14.26-11.55-14.08-21.82.31-17.99,2.03-35.9,3.4-53.83.67-8.82,1.11-17.63.29-26.45-.33-3.59-1.57-6.28-5.73-7-17.76-3.1-30.85-13.6-41.81-27.15-7.86-9.72-14.76-20.16-21.9-30.41-12.71-18.23-27.65-34.23-47.6-44.75-6.03-3.18-12.4-5.74-18.71-8.35-6.31-2.61-12.84-3.2-19.59-1.66-7.51,1.72-10.04-.28-10.36-8.21-.2-4.93-2.34-8.22-6.98-9.83-3.07-1.07-5.59-2.9-7.85-5.18-2.02-2.04-4.28-3.85-7.15-4.38-4.46-.83-4.32-3.31-2.73-6.54.66-1.34,1.39-2.67,1.91-4.07,1.1-2.95.46-5.52-2.73-6.39-3.47-.96-4.06-3.37-5.22-6.35-4.64-11.91-2.65-24.52-3.98-36.71-1.28-11.73,5.1-21.73,16.53-26.66,5.96-2.57,9.74-8.07,15.8-10.22.4-.14.88-.69.94-1.11,1.2-7.98,5.19-4.45,9.06-2.33,3.24,1.77,6.43,3.44,8.56,6.66,2.21,3.34,5.55,2.53,8.62,1.75,3.83-.97,6.31-.25,6.43,4.21.07,2.38,1.46,3.07,3.58,3.19,4.9.26,7.58,2.95,8.22,7.77.17,1.31.17,2.88,1.41,3.61,5.64,3.31,7.55,9.06,9.88,14.59.63,1.51,1.47,3.27,2.75,4.1,4.86,3.19,4.3,8.7,5.99,13.21.88,2.36-.55,4.6-2.29,6.27-2.52,2.42-2.77,5.16-1.67,8.24,4.11,11.62,7.67,23.43,12.54,34.79,2.85,6.65,7.51,11.72,13.02,16.18,21.39,17.28,44.13,32.8,65.34,50.31,4.11,3.4,8.9,5.89,14.14,7.26,7.17,1.88,13.93,1.34,19.71-3.81,7.29-6.49,15.9-10.32,25.23-12.62,16.49-4.05,32.53-9.85,49.44-12.27,5.55-.79,10.87-.51,16.32.82,7.62,1.87,15.39-3.97,16.16-11.65.37-3.71-.91-6.39-4.65-7.09-8.59-1.62-11.73-7.37-12.17-15.34-.41-7.51-3.81-14.1-6.43-20.91-1.01-2.64-3.63-3.2-6.02-3.99-6.37-2.1-8.09-5.54-5.88-11.85,1.76-5.03,3.57-10.05,5.45-15.04,2.05-5.45,3.25-10.87.28-16.41-.65-1.22-.74-2.59-.29-3.89,2.89-8.32.67-16.48-.71-24.67-.53-3.12-1.22-6.22-1.59-9.35-1.24-10.5,1.2-18.91,11.87-23.84,6.71-3.1,11.89-8.51,15.71-15,1.22-2.07,2.75-3.94,5.14-4.49,19.17-4.4,38.65-7.48,57.51-.14,15.55,6.05,29.28,15.84,42.29,26.29,10.3,8.27,13.69,19.31,10.77,32.24-2.71,12.03-5.4,24.06-8.1,36.09-2.28,10.14-8.35,17.99-15.13,25.47-10.25,11.32-14.09,24.25-9.69,39.27,1.27,4.35,3.39,6.75,8.23,5.64,3.08-.71,5.89.48,8.75,1.41,8.68,2.84,12.26.71,13.36-8.32,2.1-17.29,7.89-33.72,11.43-50.67.4-1.89,1.26-3.58,3.55-3.54,2.41.04,3.51,1.84,4.05,3.82,1.83,6.76,3.47,13.56,3.63,20.62.05,2,0,4,0,6,.02,1.94.45,3.75,2.53,4.42,1.89.6,3.23-.64,4.29-1.93,3.53-4.27,6.01-9.2,8.28-14.2,7.61-16.73,10.7-34.62,13.33-52.62,1.01-6.92,2.12-13.83,3.17-20.75.33-2.13.3-4.6,3.19-4.94,2.49-.29,3.4,1.72,4.25,3.55,4.15,8.95,7.55,18.15,8.95,27.98.21,1.44-.17,3.28,1.59,3.88,2,.68,2.92-1.11,4.01-2.31,10.61-11.76,17.69-25.78,25.25-39.48,6.46-11.7,13.11-23.25,22.61-32.81,2.29-2.3,4.38-6.58,8.53-4.14,3.61,2.13,1.78,5.99,1.12,9.15-1.18,5.72-2.98,11.26-4.85,16.79-5.37,15.95-10.59,31.94-15.85,47.92-.39,1.18-1.59,2.61-.12,3.61,1.38.93,2.43-.58,3.49-1.26,14.76-9.62,25.58-23.19,36.66-36.52,5-6.02,10.16-11.91,15.31-17.81,1.3-1.5,2.8-3.3,5.06-1.96,2.27,1.35,1.38,3.46.63,5.35-6.14,15.48-10.92,31.5-18.31,46.48-.72,1.46-1.92,3.08-.52,4.61,1.45,1.57,3.15.32,4.6-.31,2.29-.99,4.48-2.19,6.71-3.3,2.3-1.14,4.68-2.34,6.77.2,1.92,2.34,1.26,4.93-.42,6.9-4.37,5.11-7.34,11.11-11.08,16.61-4.78,7.03-9.41,14.16-14.14,21.22-1.65,2.47-2.28,4.66.33,7.04,2.57,2.35,1.13,4.67-.39,7.1-14.04,22.5-34.32,37.34-58.35,47.51-6.59,2.79-13.44,4.94-20.15,7.45-1.48.56-3.33.49-4.45,2.44ZM699.22,727.42c-4.02-6.35-7.79-11.8-11.05-17.53-14.99-26.37-22.92-55.27-29.86-84.5-1.78-7.5-1.27-14.84,1.94-21.98,5.47-12.14,4.01-23.64-3.47-34.54-4.9-7.13-10-14.13-13.95-21.89-5.25-10.3-9.08-21.09-11.68-32.34-.45-1.95-1.1-4.18-3.56-4.26-2.81-.09-3.53,2.4-3.83,4.48-.59,4.09-1.27,8.17-.85,12.4,1.07,10.81,5.43,20.16,11.85,28.72,5.9,7.87,8.24,16.15,3.64,25.64-2.02,4.17-3.19,8.75-4.79,13.14-7.11,19.54-5.63,38.39,3.48,57.1,13.02,26.74,32.38,48.71,51.79,70.7,2.31,2.61,5.32,4.5,10.34,4.87ZM707.52,647.71c-.28,2.54.86,4.56,2.43,6.36,2.63,3.01,5.14,6.16,8.04,8.89,16.88,15.92,27.77,35.42,35.87,56.98,13.8,36.75,24.29,74.41,33.15,112.59,2.47,10.63,4.63,12.4,15.46,12.08,16.57-.49,32.56,2.1,47.94,8.22,6.65,2.65,13.06,5.9,19.75,8.43,3.35,1.27,8.2,3.96,10.3-.19,1.89-3.73-2.58-6.67-5.46-9.11-6.27-5.33-14.03-6.58-21.83-7.73-15.5-2.28-29.94-6.97-40.68-19.22-6.82-7.77-13.01-16.06-18.26-24.98-3.27-5.55-5.06-11.66-5.13-18.09-.06-5.58-1.25-10.89-2.61-16.23-8.52-33.49-24.86-63.12-45.03-90.8-7.55-10.36-15.57-20.38-23.51-30.46-1.51-1.92-3.53-3.94-6.4-2.66-2.43,1.08-3.71,3.25-4.04,5.91ZM567.75,670.87c-.88,9.5.02,18.07,1.2,26.6,2.9,21.05,9.98,41.02,16.07,61.24,6.3,20.9,12.28,41.87,11.3,64.06-.04.93-.29,2.03.72,2.73,8.92-5.38,14.18-18.51,11.17-29.63-2.42-8.98-5.62-17.76-8.62-26.57-10.06-29.62-20.17-59.22-27.57-89.65-.7-2.89-1.41-5.81-4.26-8.77ZM352.85,267.87c4.67.07,8.63-1.83,12.74-3.13,2.4-.76,1.57-2.04.54-3.35-3.56-4.49-3.83-10.06-5.45-15.24-2.88-9.26-2.64-21-15.14-24.52-.6-.17-1.15-.69-1.6-1.16-4.12-4.24-8.4-8.08-14.96-7.69-1.26.08-2.57-2.28-3.83-.23-.9,1.46,0,3.04.93,4.14,6.45,7.66,6.1,16.58,4.77,25.62-.46,3.13.03,5.11,3.47,5.89,3.13.71,5.04,2.97,6.3,5.91,1.32,3.05,2.76,6.06,4.33,8.98,1.71,3.17,4.39,4.94,7.9,4.78ZM629.29,470.31c.49-.01.98-.03,1.47-.04,4.91-19.57,6.12-38.68-7.58-55.85-5.36-6.72-8.62-14.25-8.83-22.88-.15-6.2-1.26-12.24-2.36-18.3-.48-2.64-.88-5.66-3.93-6.37-2.97-.69-4.39,2.01-5.69,4.05-9.11,14.32-18.23,28.66-25.77,43.9-2.12,4.29-4.19,8.76-4.71,14.77,9.98-10.78,19.27-20.73,28.46-30.79,2.03-2.23,3.62-5.07,7.29-3.96,3.29.99,5.11,3.73,4.98,6.8-.41,9.37,2.89,16.31,10.26,22.49,5.83,4.89,6.3,12.96,6.39,20.41.1,8.59.02,17.18.02,25.77ZM700.72,368.93c-.77.94-.95,1.05-.97,1.19-.47,2.95-.92,5.91-1.37,8.86-4.26,28.49-9.33,56.67-30.11,78.85-.54.58-1.43,1.3-.78,2.09.42.51,1.45.7,2.21.72,5.48.11,9.44-2.63,12.59-6.87,9.41-12.7,14.93-27.05,17.57-42.51,2.35-13.79,3.56-27.66.86-42.33ZM539.46,480.45c1.82-1.86,1.94-3.93,2.45-5.77,2.77-10.11,5.29-20.28,8.19-30.35,5.62-19.53,2.94-37.89-7.48-55.16-3.37-5.59-7.1-10.98-12.01-15.6-.7,1.19-.2,1.71.19,2.19,6.96,8.71,10.56,18.78,11.9,29.72,1.78,14.64-.37,29.23-.9,43.83-.37,10.25-1.5,20.47-2.33,31.14ZM543.65,571.15c9.31-1.77,17.44,1.4,25.35,5.62,6.18,3.3,12.57,6.13,19.25,8.29,9.14,2.95,18.47,1.94,27.76,1.45,1.82-.1,4.05-.99,3.59-3.28-.58-2.93-2.91-1.37-4.45-.9-6.99,2.15-13.47.51-19.89-2.27-9.48-4.1-18.93-8.28-28.53-12.06-8.14-3.21-16.07-3.03-23.08,3.15ZM634.78,188.16c-2.91.09-4.46,1.87-5.42,4.39-1.14,2.99-1.62,5.94,1.38,8.12,3.02,2.2,5.92,4.57,7.14,8.14,2.17,6.36,6.83,9.13,13.06,9.99,1.57.22,3.26,1.36,4.67-.27,1.53-1.76.28-3.42-.32-5.11-3.33-9.38-11.46-15.42-16.45-23.66-.76-1.26-2.47-1.62-4.06-1.6ZM676.76,223.9c-.34.25-.87.45-1.09.84-2.2,3.9-4.72,7.69-5.88,12.03-.79,2.95,2.09,4.66,3.34,6.92.81,1.45,1.65,2.89,2.28,4.42,2.69,6.6,4.92,6.95,9.46,1.28,1.23-1.54,2.1-3.37,3.09-5.09,1.52-2.63.86-4.78-1.56-6.45-4.15-2.87-6.73-6.78-7.97-11.65-.23-.91-.31-2.04-1.68-2.3ZM715.55,818.37c-3.59.06-4.51,2.15-2.43,6.16,5.58,10.77,13.51,19.73,22.38,27.89.86.79,1.91,1.75,3.07.91,1.31-.96.39-2.15-.3-3.03-6.69-8.59-11.64-18.21-16.47-27.9-1.3-2.62-3.66-3.74-6.26-4.02ZM559.53,810.14c-1.43-12.24-3.78-24.1-12.68-33.42-.28,12.84,4.57,23.75,12.68,33.42Z"/>
      <path d="M274.88,982.39c1.09-10.89,2.06-23.01,3.57-35.06,1.46-11.67.06-22.26-7.07-32.23-7.08-9.9-8.09-21.53-4.82-33.07,2.95-10.38,2.93-20.18-1.22-30.24-3.08-7.44-3.61-15.58-4.09-23.55-.89-14.96-1.94-29.94-1.09-44.94.68-12.1-2.86-22.5-10.81-31.74-7.18-8.34-7.79-18.08-4.2-28.23,2.22-6.27,4.79-12.4,6.02-19.02,1.07-5.76.64-11.3-1.12-16.75-2.23-6.89-1.33-13.27,3.13-18.87,3.91-4.9,3.7-9.76.89-14.86-13.89-25.18-21.59-52.22-24.44-80.74-.8-7.99-.58-15.98-.66-23.97-.05-5.21-.61-10.33-2.31-15.25-4.45-12.86-2.15-24.97,4.02-36.62,3.98-7.52,8.61-14.64,13.36-21.7,4.16-6.18,3.48-7.79-3.59-9.49-19.29-4.63-38.84-7.93-58.31-11.63-6.56-1.24-8.28,0-10.29,6.23-1.17,3.64-2.34,7.31-3.88,10.8-1.75,3.98-4.81,6.76-9.09,8-6.55,1.89-11.74-.91-13.4-7.47-1.06-4.19-1.79-8.47-2.49-12.74-.84-5.12-1.8-10.15-4.71-14.62-4.99-7.65-2.83-17.43,5.11-21.75,3.68-2,5.76-4.63,6.97-8.55,1.36-4.44,3.02-8.85,5.05-13.03,3.56-7.33,9.9-9.31,19.22-6.45,7.88,2.42,10.57,6.68,9.49,15.08-.51,3.96-.94,7.94-1.62,11.88-.81,4.66.75,7.12,5.63,8.01,18.35,3.36,36.65,7.01,54.98,10.49,5.3,1.01,6.48-.36,5.11-5.5-2.67-10.04-8.78-18.01-16.1-24.87-7.76-7.28-10.22-15.11-7.38-25.58,5.47-20.18,14.98-37.68,30.91-51.44,1.38-1.19,2.88-2.28,4.42-3.25,11.66-7.36,22.71-3.93,28.16,8.75,1.19,2.75,2.11,5.62,3.42,8.31,2.72,5.61,7.18,8.97,13.39,10.13,7.78,1.45,9.8,3.49,10.95,11.36.44,3.01,1.97,5.22,3.71,7.47,1.94,2.5,3.98,4.94,5.65,7.61,3.21,5.15,3.1,10.34-.23,15.52-3.17,4.93-7.05,9.28-10.85,13.69-3.5,4.05-6.76,8.28-8.75,13.3-3.31,8.39-.94,16.1,6.71,20.86,12.18,7.58,25.65,11.94,39.58,14.85,6.49,1.36,10.01-.66,13.39-6.83,1.46-2.66,3.33-5.15,6.41-4.81,8.67.98,17.51-.74,26.07,2.75,8.51,3.47,15.21,8.2,17.83,17.4.99,3.47,3.37,5.08,6.79,5.77,10.28,2.09,20.56,4.21,30.79,6.54,6.42,1.46,7.82,3.71,7.21,10.34-1.17,12.8-3.57,14.78-16.08,12.38-11.61-2.23-23.15-4.85-34.73-7.26-6.57-1.37-9.41.13-12.26,6.32-5.36,11.65-7.65,23.71-5.17,36.48.81,4.15.3,8.3-.78,12.37-1.41,5.31-2.54,10.72-4.24,15.94-3.57,11-3.54,21.71.19,32.81,3.44,10.26.85,19.74-6.87,27.59-1.75,1.78-3.58,3.51-5.12,5.47-5.42,6.93-6.92,14.6-2.33,22.35,5.26,8.88,8.61,18.31,10.68,28.36,1.18,5.73,5.09,10.07,9.05,14.14,5.24,5.39,10.06,11.13,14.6,17.09,5.61,7.36,10.32,15.1,10.1,24.96-.1,4.63,2.28,8.68,4.77,12.45,12.86,19.45,25.24,39.27,38.91,58.14,11.51,15.89,11.51,31.1,1.86,47.42-8.43,14.25-20.26,25.54-31.66,37.19-18.43,18.83-38.38,35.99-58.72,52.71-1.03.85-1.98,1.78-3.01,2.63-3.23,2.7-3.08,5.3.29,7.69,4.48,3.18,9,6.32,13.55,9.4,3.74,2.54,6.21,6.03,7.64,10.23,1.8,5.28-1.57,11.84-8.93,10.17-10.79-2.45-20.36-7.21-29.62-12.89-9.75-5.99-10.52-5.99-19.11,1.36-3.42,2.92-7.15,5.55-10.18,8.82-8.03,8.66-5.76,16.86,5.42,20.49,3.81,1.24,7.71,2.11,11.74,2.3,4.04.18,7.91,1.12,11.67,2.55,3.18,1.21,5.94,3.04,8.01,5.77,5.55,7.28,2.02,15.83-6.97,16.96-9.3,1.17-18.24-.6-27.06-3.37-3.02-.95-6.05-1.87-9.11-2.69-5.26-1.4-10.43-1.35-15.72.39-11.62,3.83-21.87-2.33-23.45-14.48-1.35-10.38-1.84-20.87-2.81-32.55ZM333.54,803.89c-.4.67-.72.96-.69,1.21.11.81.27,1.64.54,2.41,2.7,7.84,2.45,15.74.34,23.62-1.33,4.98-3.02,9.87-4.35,14.85-2.38,8.91-6.86,17.33-5.06,27.15,2.05,11.12,4.12,22.28,4.06,33.67,0,1.34.13,2.82,1.55,3.44,1.71.76,2.84-.46,3.82-1.6,3.92-4.53,7.82-9.09,11.69-13.66,8.09-9.56,16.02-19.28,20.19-31.3,3.46-9.97,1.81-19.41-5.85-26.75-7.43-7.12-13.27-15.32-18.98-23.72-2.18-3.21-4.11-6.69-7.27-9.33ZM319.26,572.96c-.12-.85-.13-2.4-.58-3.8-4.19-12.99-8.47-25.95-12.71-38.93-.93-2.85-2.88-4.84-5.42-6.27-1.22-.68-2.49-2.27-3.97-.89-1.22,1.14-.07,2.53.47,3.66,2.63,5.57,5.11,11.22,8.09,16.6,5.97,10.79,6.35,21.48.37,32.34-3.35,6.08-4.83,12.73-5.69,19.54-.21,1.7-.22,3.5,1.71,4.24,1.82.7,2.61-.88,3.58-2,2.51-2.88,5.15-5.66,7.6-8.59,3.68-4.42,6.54-9.24,6.56-15.91ZM311.81,701c.95,9.02,4.34,17.26,8.59,25.22,3.97,7.44,7.27,15.04,5.23,23.83-.41,1.76.17,3.37,1.96,4.16,1.92.84,3.23-.36,4.26-1.69,2.87-3.7,4.42-7.75,3.31-12.56-1.24-5.37-4.54-9.59-7.55-13.97-5.56-8.09-11.5-15.94-15.81-24.99Z"/>
      <path d="M570.37,179.78c0,24.16.04,48.33-.04,72.49-.01,4.32.4,8.22,3.97,11.3,2.61,2.26,1.86,5.03.45,7.75-6.21,12.01-6.96,24.02-.05,36.09,2.24,3.91.25,8.33-4.12,9.4-1.59.39-3.31.34-4.97.34-36.66.02-73.33.02-109.99.01-1,0-2,0-3-.06-3.14-.18-5.49-1.56-6.24-4.76-.71-3.02.02-5.86,2.84-7.36,3.4-1.81,4.66-4.51,4.66-8.13-.01-39.5.01-78.99-.07-118.49,0-3.65-.84-7.28-.12-10.95.26-1.33.26-2.8-1.37-3.34-1.39-.46-2.12.68-2.84,1.58-2.53,3.18-5.52,5.79-9.29,7.4-8.46,3.61-15.61-.81-16.16-10-.13-2.16.01-4.33-.01-6.5-.02-2.09-.45-4.1-2.61-4.98-2.25-.92-3.82.48-5.2,2.01-1,1.11-1.86,2.36-2.89,3.44-4.85,5.08-9.59,5.71-14.94,1.26-3.73-3.11-6.8-3.06-10.74-.52-7.11,4.56-12.2,2.05-13.25-6.32-.67-5.35.59-10.62,1.2-15.9.57-4.92.44-9.33-4.39-12.26-1.34-.81-2.21-2.1-1.59-3.82.57-1.58,1.89-2.23,3.45-2.52,4.23-.79,8.49,1.71,10.28,6.17,1.68,4.19,1.27,8.53.58,12.82-.57,3.47-.95,6.95-.68,10.45.31,3.95,2.04,4.74,5.16,2.56,6.55-4.59,6.61-4.66,12.19.8,2.83,2.77,5.58,2.45,8.52.43,3.01-2.08,5.85-4.47,9.05-6.21,7.59-4.13,13.94-1.16,15.69,7.32.57,2.73.34,5.63.45,8.45.07,1.97.65,3.61,2.68,4.36,2.09.77,3.54-.32,4.8-1.75,2.98-3.37,5.91-6.77,8.87-10.15,2.45-2.79,5.34-5.04,8.62-6.73,7.25-3.74,11.96-2.1,15.13,5.39,1.13,2.67,2.57,4.68,5.68,4.81,5.35.23,7.17,3.57,7.24,8.31.09,5.33.02,10.66.02,16,0,22.16,0,44.33,0,66.49,0,2.17-.04,4.34.11,6.5.59,8.66,7.73,12.43,15.21,8.1,1.84-1.06,2.37-2.69,2.37-4.62,0-45.16.03-90.32-.1-135.49-.02-5.59-3-7.37-8.32-5.7-5.45,1.7-9.61,5.37-13.23,9.51-6.78,7.75-15.05,12.97-24.81,16.09-6.4,2.05-12.32,1.16-17.51-2.8-4.22-3.21-8.36-3.37-13.13-1.8-16.95,5.57-20.8,3.75-27.21-12.72-1.6-4.11-3.63-7.45-8.61-7.89-1.88-.17-3.62-1.18-3.76-3.39-.16-2.47,1.68-3.44,3.67-4.1,5.53-1.83,10.75-.14,13.96,4.82,2.35,3.63,4.31,7.5,6.58,11.18,2.38,3.86,5.94,5.2,10.32,4.2,3.25-.74,6.47-1.58,9.69-2.46,7.78-2.14,15.15-2.37,21.32,4.09,2.08,2.17,4.79,2.11,7.48,1.33,4.27-1.25,7.73-3.8,10.89-6.84,4.92-4.73,9.39-9.93,14.88-14.06,7.04-5.3,14.31-6.71,22.24-1.85,7.96,4.89,16.81,3.16,25.39,2.88,2.61-.09,3.07-2.57,3.27-4.89.72-8.35,2.28-9.92,10.69-10.48,4.99-.33,9.97,0,14.96.52,4.49.48,6.57,2.84,6.61,7.17.06,6.67.06,13.33.06,20,0,18.67,0,37.33,0,56ZM519.19,214.82c.08,0,.16,0,.24,0,0,1.33,0,2.67,0,4-.05,25.49-.11,50.97-.13,76.46,0,2.26-.66,5.04,1.88,6.32,4.24,2.13,8.8,1.85,13.1.22,3.71-1.41,2.66-4.98,2.66-7.85.04-52.8.04-105.61.02-158.41,0-1.82-.03-3.68-.37-5.46-.48-2.47-2-4.11-4.58-4.72-8.45-2.01-12.83,1.44-12.82,10,.03,26.48.01,52.97.01,79.45ZM472.86,236.62s-.02,0-.04,0c0-20.31,0-40.63,0-60.94,0-1.88.14-4.02-2.34-4.25-2.83-.26-3.02,2-3.12,4.08-.04.83-.04,1.66-.04,2.5,0,38.97,0,77.94,0,116.91,0,1.49.05,3,.28,4.47.19,1.25,1.02,2.09,2.39,2.13,1.37.04,2.29-.79,2.53-1.99.3-1.45.31-2.97.31-4.46.02-19.49.01-38.97.01-58.46ZM554.37,300.29c2.35-6.13,2.09-182.44-.06-187.13-2.44,3.83-2.61,181.5.06,187.13ZM503.93,289.53s.05,0,.07,0c0-1.99.06-3.99-.01-5.98-.19-5.25-2.2-7.25-7.31-7.37-5.52-.13-7.86,1.77-8.1,7.1-.2,4.48-.04,8.97.02,13.46.05,3.56,1.97,5.45,5.46,5.93,7.01.96,9.81-1.47,9.86-8.64.01-1.5,0-2.99,0-4.49Z"/>
      <path d="M949.45,686.15c-39.15,0-78.3,0-117.45,0-10.56,0-12.82-2.25-12.81-12.99.01-38.98.05-77.97.08-116.95,0-.67,0-1.33.01-2,.25-8.74,1.39-10.04,9.97-10.89,2.48-.25,4.99-.24,7.49-.24,47.15-.01,94.29,0,141.44-.02,9.54,0,9.78-.26,9.79-9.85.01-22.99-.02-45.98.02-68.97.01-8.89,1.54-10.35,10.54-10.44,2.83-.03,5.67-.07,8.5,0,4.55.13,8.79.23,11.73-4.54,1.74-2.82,5.48-3.15,8.66-2.94,6.33.42,12.64.18,18.96.06,7.24-.14,9.72,2.09,9.86,9.32.08,4.01,1.79,5.84,5.63,6.01.33.01.67.03,1,.05,15.85.94,16.52,1.64,16.52,17.33,0,64.64,0,129.28,0,193.91,0,2.16,0,4.33-.15,6.49-.26,3.92-2.41,6.09-6.33,6.38-1.99.15-3.99.18-5.99.18-39.15,0-78.3,0-117.45,0v.07ZM950.23,670.97c34.64,0,69.29,0,103.93,0,8.87,0,11.07-1.95,10.64-10.88-1.07-22.48-.34-44.96-.48-67.43-.04-7.15.45-14.3.5-21.46.04-6.44-2.3-8.82-8.63-8.98-4.66-.12-9.33.03-13.99.03-65.46-.03-130.92-.06-196.37-.08-9.09,0-10.43,1.36-10.43,10.41-.01,29.48-.02,58.96,0,88.44,0,8.42,1.56,9.96,9.89,9.96,34.98,0,69.96,0,104.93,0ZM1045.22,502.56c0-12.98.04-25.95-.02-38.93-.03-5.24-2.12-7.24-7.25-7.31-5.13-.07-7.41,1.93-7.42,7.14-.07,25.62-.06,51.23,0,76.85.01,5.57,2.02,7.3,7.72,7.29,5.67,0,6.96-1.25,6.98-7.11.04-12.64.01-25.29,0-37.93ZM1001.37,507.48c0,10.83-.04,21.67.02,32.5.03,6.14,1.86,7.75,8.31,7.65,6.36-.1,8.25-1.85,8.16-7.95-.08-5.66-.96-11.36-.48-16.96,1.35-15.81-.4-31.61.42-47.42.35-6.84-1.57-8.36-8.65-8.35-6.52.01-7.73,1.2-7.76,8.03-.05,10.83-.01,21.67-.02,32.5ZM1067.96,510.01c0-10.3.05-20.61-.02-30.91-.04-5.23-1.74-6.96-6.2-7.01-4.96-.05-5.53,3.15-5.53,7,.03,20.44.05,40.88-.03,61.32-.01,3.97.76,7.01,5.53,7.07,4.3.05,6.21-2.03,6.24-7.07.06-10.14.02-20.27.01-30.41Z"/>
      <path d="M963.43,372.76c10.68-.21,11.23.17,14.7,10.14,2.78,7.97,5.01,9.32,13.42,7.76,5.56-1.03,11.07-2.33,16.63-3.4,12.12-2.32,19.73,1.43,25.55,12.32,5.51,10.31,7.57,21.24,6.13,32.82-.45,3.64-1.56,7.03-5.88,7.61-4.5.61-6.01-2.68-7.3-6.08-1.55-4.08-2.22-8.34-2.66-12.66-1.48-14.83-11.31-22.08-26-19.07-5.21,1.07-10.31,2.73-15.55,3.63-10.02,1.73-14.61-1.71-16.41-11.77-1.67-9.37-3.55-10.55-12.85-8.06-12.23,3.27-17.46-.18-19.4-12.67-1.03-6.64-1.16-13.27-.08-19.88,1.11-6.81.35-12.62-6.93-15.78-2.06-.9-3.39-2.71-2.93-5.26.47-2.6,2.23-3.92,4.6-4.73,12.3-4.21,23.96,5.58,22.61,19.1-.36,3.64-1.21,7.24-1.48,10.88-.86,11.63,1.53,16.4,13.81,15.13Z"/>
      <path d="M898.23,531.05c-23.65,0-47.3.03-70.94-.03-6.22-.01-8.92-2.13-9.12-6.82-.18-4.13,1.74-6.67,5.91-7.25,1.48-.2,2.99-.17,4.49-.17,46.3,0,92.59,0,138.89,0,1.66,0,3.35,0,4.98.25,3.61.58,5.73,2.76,5.65,6.47-.08,3.84-1.59,6.86-5.92,7.37-1.65.19-3.32.18-4.99.18-22.98.01-45.96,0-68.95,0Z"/>
      <path d="M904.73,387c.31-2.8.44-5.64.98-8.4.5-2.55,2.25-4,4.98-4.03,2.78-.04,4.35,1.43,4.92,4.02.57,2.6.98,5.23,1.56,7.83,1.19,5.31,4.6,8.55,9.89,9.23,6.82.88,10.78,4.67,12.69,11.02.1.32.22.63.32.95,4.74,14.11,6.99,15.32,21.04,10.76,7.34-2.38,13.81-2.99,18.87,4.69,3.05,4.62,8.45,6.26,13.67,7.66,4.01,1.08,8.17,1.71,11.86,3.79,2.83,1.6,5.05,3.8,6.48,6.74,2.12,4.37,1.17,8.81-2.21,10.57-4.68,2.43-10.85.95-12.27-3.81-1.87-6.27-5.54-7.64-11.56-7.39-6.86.29-13.21-1.81-17.39-7.97-1.67-2.45-3.88-2.85-6.56-1.99-10.6,3.39-20.35-1.23-30.23-3.61-4.17-1.01-5.6-5.54-5.76-9.73-.21-5.71-2.8-9.1-8.23-11.11-10.68-3.96-12.83-7.5-13.05-19.22Z"/>
      <path d="M549.71,1020.96c-.86,4.51-.6,9.69-3.93,13.87-1.25,1.56-2.51,3.38-4.88,2.72-2.32-.64-2.82-2.67-2.82-4.76.02-6.02-3.84-8.43-8.93-9.68-17.12-4.21-34.26-8.31-51.35-12.63-6.5-1.64-7.73-6.26-3.22-11.34,3.24-3.66,7.25-5.07,12.13-3.81,18.19,4.73,36.4,9.37,54.58,14.13,6.25,1.64,8.7,5.05,8.43,11.49Z"/>
      <path d="M482.21,963.22c-.37,2.74-2.12,5.28-5.04,6.92-2.88,1.62-5.11-.09-7.24-1.76-3.97-3.11-7.01-7.09-10.13-11-9.44-11.86-19-23.62-28.31-35.59-5.61-7.21-3.91-14.74,3.68-18.26,3.5-1.63,6.48-1.23,8.79,2.04,12.2,17.29,24.4,34.57,36.56,51.88,1.05,1.5,1.83,3.19,1.69,5.77Z"/>
      <path d="M434.98,1064.56c13.68,2.51,27.59,5.08,41.51,7.62,8.68,1.58,17.36,3.13,26.05,4.67,6.42,1.13,8.39,3.05,7.65,7.56-1.03,6.25-4.68,9.05-10.86,7.95-21.47-3.81-42.92-7.72-64.37-11.6-1.15-.21-2.3-.38-3.44-.59-3.31-.62-7.55-.09-7.85-5.05-.27-4.45,4.34-9.78,8.58-10.41.82-.12,1.66-.09,2.74-.14Z"/>
      <path d="M416.41,1098.53c15.16,2.48,31.24,5.09,47.32,7.76,8.53,1.42,17.04,2.96,25.56,4.42,3.37.57,6.88.91,6.53,5.7-.37,5.06-3.41,8.81-7.8,8.77-3.79-.03-7.6-.71-11.37-1.32-22.15-3.63-44.29-7.32-66.43-11-2.51-.42-5.03-.79-5.25-4.19-.25-3.93,2.87-8.75,6.5-9.65,1.27-.32,2.63-.28,4.94-.49Z"/>
      <path d="M562.73,1001.23c.43-3.94-1.74-7.26-6.07-8.96-4.63-1.82-9.4-3.3-14.15-4.82-11.55-3.71-23.12-7.37-34.7-11.02-2.17-.68-4.16-1.55-4.5-4.08-.31-2.28,1.3-3.55,2.88-4.88,5.26-4.44,10.87-5.67,17.6-3.38,14.47,4.93,29.1,9.4,43.64,14.15,7.41,2.42,9.75,6.19,8.79,13.96-.6,4.88-2.19,9.41-5.62,13.07-1.56,1.67-3.15,3.89-5.85,2.82-2.7-1.08-2.51-3.59-2.03-6.85Z"/>
      <path d="M458.46,1030.92c12.77,2.33,25.88,4.7,38.99,7.12,7.54,1.39,15.08,2.75,22.58,4.3,6.4,1.32,8.59,4.04,7.6,8.9-1.2,5.89-5.53,8.97-11.39,7.46-20.84-5.38-42.37-7.14-63.24-12.3-2.97-.73-6.18-.97-6.82-4.71-.61-3.56,1.43-6.03,4.07-8.02,2.31-1.75,4.89-2.84,8.21-2.74Z"/>
      <path d="M375.37,993.42c12.05-.04,24.99,8.57,29.68,20.42,3.08,7.78,7.37,14.89,11.79,21.92,3.56,5.66,3.08,10.97-.6,16.27-2.3,3.31-4.91,3.69-7.88.88-3.65-3.46-6.36-7.68-9.25-11.73-9.09-12.71-17.54-25.86-25.78-39.13-.87-1.4-1.67-2.93-2.06-4.51-.65-2.61.4-4.2,4.1-4.13Z"/>
      <path d="M589.93,974.54c.34-7.69-1.85-11.18-9.59-14.4-11.51-4.79-23.16-9.27-34.73-13.91-1.54-.62-3.16-1.18-4.49-2.12-2.3-1.63-2.55-3.74-.74-6,3.99-4.98,11.15-7.03,17.15-4.57,14.16,5.81,28.23,11.81,42.38,17.63,4.75,1.95,6.58,5.16,5.53,10.24-1.18,5.68-1.49,11.66-5.57,16.29-1.95,2.22-4.04,4.87-7.54,3.66-3.72-1.29-2.38-4.59-2.4-6.83Z"/>
      <path d="M643.56,940.54c.16,5.64-1.21,11.07-7.66,13.74-5.47,2.26-8.1.79-8.89-5.05-.76-5.64-3.62-9.88-8.2-13.13-6.06-4.3-13.07-6.52-19.87-9.24-4.63-1.85-9.32-3.64-13.74-5.92-4.15-2.14-4.22-6.07-.44-8.67,6.52-4.49,13.08-5.65,20.54-1.52,9.89,5.48,20.2,10.19,30.29,15.33,6.75,3.44,8.64,6.86,7.97,14.46Z"/>
      <path d="M345.05,1039.4c3.93-.23,6.85.89,9.34,3,9.01,7.65,18,15.35,26.95,23.07,3.07,2.65,4.75,5.52,1.67,9.44-4.8,6.12-7.77,7.49-12.36,4.25-13.76-9.68-27.34-19.62-40.97-29.48-1.69-1.22-3.03-2.77-2.47-5.05.57-2.32,2.59-2.93,4.59-3.26,4.6-.75,9.22-1.38,13.26-1.97Z"/>
      <path d="M681.05,922.65c1.37,7.02-1.82,11.82-8.09,14.72-6.41,2.96-11.55-.04-10.88-7,.92-9.58-3.36-15.34-11.24-19.68-5.23-2.87-10.15-6.32-15.16-9.58-1.53-1-3.14-2.16-2.92-4.3.25-2.36,2.21-3.16,4.11-3.83,6.29-2.21,12.18-2.15,17.97,1.95,5,3.54,10.31,6.76,15.82,9.41,7.86,3.77,12.04,9.21,10.37,18.31Z"/>
      <path d="M721.36,911.41c.61,9.48-1.08,12.31-7.81,13.37-5.14.81-8.38-1.43-8.3-6.54.16-10.57-4.72-18.41-12.38-25.02-1.85-1.59-4.24-3.14-3.43-6.12.86-3.18,3.81-3.39,6.41-3.84,12.73-2.19,23.98,7.81,25.48,22.67.18,1.81.02,3.65.02,5.48Z"/>
      <path d="M745.88,904.51c.11-6.57-.9-12.89-4.21-18.69-2.04-3.58-.73-5.55,2.99-6.56,8.52-2.33,16.19,2.82,17.5,12.18.78,5.57,1.09,11.22,1.27,16.84.21,6.31-2.37,8.78-8.61,8.83-6.22.05-8.79-2.43-8.94-8.62-.03-1.33,0-2.65,0-3.98Z"/>
      <path d="M788.02,894.51c-.1-1.75-.18-4.9-.47-8.03-.36-3.8,1.38-5.48,5.05-5.79,9.41-.79,13.39,2.63,13.6,11.95.1,4.31.13,8.63-.03,12.94-.22,5.93-4.3,9.41-10.63,9.3-5.1-.08-7.35-2.74-7.51-9.02-.08-3.32-.01-6.64-.01-11.36Z"/>
      <path d="M828.8,898.65c0-.75.06-1.42,0-2.08-1.29-11.56,5.86-11.41,14.61-8.81,3.11.93,4.06,3.86,3.95,6.84-.19,5.47-.45,10.94-1.03,16.38-.44,4.15-3.36,5.85-7.32,5.99-5.24.19-9.15-2.22-9.8-6.53-.58-3.91-1.25-7.89-.41-11.8Z"/>
      <path d="M870.95,909.57c0-1.33-.07-2.66.01-3.99.5-8.5,4.26-11.3,12.48-9.34,5.2,1.24,7.38,3.95,6.79,9.34-.47,4.28-1.4,8.52-2.38,12.72-.75,3.22-3.18,4.68-6.38,4.32-4.26-.48-9.02-.53-10.19-6.1-.47-2.25-.39-4.62-.56-6.94h.23Z"/>
      <path d="M958.55,924.61c6.54-.04,11.76,4.22,11.84,9.66.09,6.37-5.34,13.55-10.26,13.54-5.12,0-10.53-4.77-10.61-9.37-.12-6.41,4.71-13.81,9.03-13.83Z"/>
      <path d="M967.31,914.83c2.41.18,4.46,1.24,6.35,2.64,9.6,7.1,19.19,14.21,28.77,21.35.92.69,1.75,1.53,2.5,2.41.82.96,1.04,2.14.3,3.22-.77,1.13-2.03,1.1-3.16.72-1.09-.36-2.14-.9-3.12-1.5-11.16-6.85-21.82-14.54-33.5-20.56-1.97-1.01-3.79-2.43-3.1-5.05.64-2.46,2.56-3.3,4.96-3.22Z"/>
      <path d="M966.39,647.55c-6.52,6.09-12.89,8.81-20.41,9.03-12.29.35-22.42-5.86-26.69-17.15-6.79-17.95-.43-46.94,22.92-56.54,10.29-4.23,20.73-4.55,31,.39,6.98,3.36,10.79,9.13,12.73,16.4.94,3.5.11,5.55-3.93,5.44-2.16-.06-4.34-.11-6.5.04-3.77.25-6.36-.45-8.14-4.61-2.59-6.05-12.43-7.5-19.45-3.47-4.34,2.49-7.27,6.25-9.44,10.7-3.51,7.17-3.95,14.77-2.94,22.47.98,7.44,5.78,11.42,13.31,11.59,7.3.17,12.82-3.04,16.7-9.12,1.64-2.57,1.57-4.46-2.22-4.37-.67.02-1.33,0-2-.01-8.18-.08-10.25-3.94-6.25-11.45,1.09-2.04,2.81-2.1,4.66-2.1,7.33-.02,14.66.07,21.99-.04,3.59-.05,4.71,1.32,3.96,4.89-2.07,9.94-4.23,19.89-5.73,29.92-.92,6.16-4.89,5.48-9.11,5.61-4.65.15-5.13-2.66-4.47-7.61Z"/>
      <path d="M1001.92,630.74c4.29-.9,7.56.53,10.05,5.83,3,6.4,16.09,7.62,21.29,2.75,3.55-3.32,3.36-7.42-.77-10.01-2.37-1.49-5.07-2.49-7.69-3.54-4.02-1.61-8.19-2.86-12.12-4.64-7.38-3.35-12.7-8.18-12.89-17.25-.21-9.82,3.94-16.87,12.62-20.82,10.17-4.62,20.78-4.54,31.09-.31,6.71,2.75,10.87,8.05,12.58,15.19.78,3.27-.05,5.23-3.79,5.18-3-.04-6-.03-8.99,0-2.24.03-3.49-.92-4.59-3.01-3.08-5.86-11.45-8.12-17.31-4.99-4.72,2.52-5.14,7.41-.67,10.24,2.36,1.49,5.1,2.41,7.73,3.43,4.03,1.57,8.22,2.78,12.16,4.53,7.86,3.48,13.25,9.16,13.52,18.17.26,9.03-3.55,16.47-11.55,20.71-12.97,6.88-26.33,6.47-39.26-.29-5.49-2.87-9.02-7.8-10.62-13.92-1.57-5.98-.7-7.18,5.36-7.26,1-.01,2,0,3.87,0Z"/>
      <path d="M873.92,581.35c5.32,0,10.7-.54,15.94.11,12.91,1.61,19.2,8.07,20.35,20.02,1.11,11.48-5.43,22.42-15.82,26.33-6.05,2.28-12.38,2.22-18.72,2.23-13.21.02-10.56-1.27-13.27,10.63-.26,1.14-.55,2.27-.77,3.41-2.06,10.99-5.92,13.46-16.84,10.93-3.55-.82-2.68-3.22-2.24-5.47,3.26-16.83,6.55-33.65,9.83-50.47.86-4.41,1.95-8.79,2.52-13.24.49-3.81,2.44-5.07,6.03-4.94,4.32.15,8.66.04,12.98.04v.43ZM875.86,615.61c3.34.13,6.66.03,9.83-1.13,4.31-1.58,5.9-5.07,6.26-9.32.26-3.02-.41-5.89-3.3-7.22-5.16-2.37-10.92-2.51-16.09-1.07-3.68,1.02-2.31,6.03-3.31,9.22-.4,1.26-.45,2.62-.84,3.89-1.24,4.08.05,6.06,4.47,5.66.99-.09,1.99-.01,2.98-.03Z"/>
    </g>
  </g>
</svg>